<?xml version="1.0" encoding="UTF-8"?>
<svg id="Capa_2" data-name="Capa 2" xmlns="http://www.w3.org/2000/svg" viewBox="0 0 882.89 130.86">
  <g id="Capa_1-2" data-name="Capa 1">
    <g>
      <g>
        <path d="M860.8,112.8v7.49h21.71v3.08h-21.71v7.49h-2.89v-18.05h2.89Z"/>
        <path d="M879.55,79.87h2.96v14.32h-24.6v-13.93h2.92v10.85h7.6v-9.93h2.86v9.93h8.26v-11.23Z"/>
        <path d="M870.21,62.36c-7.38,0-12.69-5.3-12.69-12.61,0-5.69,3.39-10.25,8.7-11.66v3.15c-3.56,1.31-5.68,4.47-5.68,8.51,0,5.49,4.01,9.46,9.67,9.46s9.66-3.97,9.66-9.46c0-4.14-2.26-7.35-6.04-8.63v-3.15c5.56,1.4,9.06,5.97,9.06,11.77,0,7.31-5.3,12.61-12.68,12.61Z"/>
        <path d="M857.91,0h24.6v3.08h-11.18v12.73h11.18v3.08h-24.6v-3.08h10.46V3.08h-10.46V0Z"/>
      </g>
      <g>
        <g>
          <path d="M37.7,7.9h66.07c20.73,0,37.7,16.97,37.7,37.7v27.57c0,20.73-16.97,37.7-37.7,37.7H37.7C16.97,110.88,0,93.91,0,73.18v-27.57C0,24.87,16.97,7.9,37.7,7.9ZM52.46,96.74h51.32c12.97,0,23.57-10.6,23.57-23.57v-27.57c0-12.97-10.6-23.57-23.57-23.57H37.7c-12.97,0-23.57,10.6-23.57,23.57v27.57c0,12.97,10.6,23.57,23.57,23.57h14.75Z"/>
          <path d="M198.16,22.04c-8.25,0-15.02,6.67-15.14,14.92,0,.07,0,.15,0,.22s0,.15,0,.23c.12,8.16,6.76,14.8,14.92,14.92.08,0,.15,0,.22,0h67.69c16.1,0,29.28,13.18,29.28,29.28,0,12.29-7.78,23.29-19.27,27.51-3.21,1.18-6.6,1.78-10.01,1.78h-88.81v-14.14h88.81c8.25,0,15.02-6.67,15.14-14.92,0-.07,0-.15,0-.22s0-.15,0-.22c-.12-8.16-6.76-14.8-14.92-14.92-.08,0-.15,0-.23,0h-67.69c-16.09,0-29.28-13.18-29.28-29.28,0-12.28,7.78-23.29,19.26-27.5,3.21-1.18,6.6-1.77,10.01-1.77h88.81v14.14h-88.81Z"/>
          <path d="M360.36,7.9h66.07c20.73,0,37.7,16.97,37.7,37.7v27.57c0,20.73-16.97,37.7-37.7,37.7h-66.07c-20.73,0-37.7-16.97-37.7-37.7v-27.57c0-20.73,16.97-37.7,37.7-37.7ZM375.11,96.74h51.32c12.97,0,23.57-10.6,23.57-23.57v-27.57c0-12.97-10.6-23.57-23.57-23.57h-66.07c-12.97,0-23.57,10.6-23.57,23.57v27.57c0,12.97,10.6,23.57,23.57,23.57h14.75Z"/>
          <path d="M604.46,40.04v-.14c0-9.83-8.04-17.87-17.86-17.87h-95.07V7.9h95.07c17.59,0,32,14.41,32,32,0,14.68-10.15,27.55-24.35,31.07l-.7.17c-.34.08-.69.15-1.04.21l27.31,39.53h-18.25l-26.93-38.98h-68.96v38.98h-14.14v-53.12h95.07c9.74,0,17.78-8,17.86-17.72Z"/>
        </g>
        <path d="M632.67.24v127.76h196.79V.24h-196.79ZM801.41,114.18h-91.95l8.95-14.14h73.23l-52.21-75.56-61.97,89.7h-26.44V11.2h14.14v95.91l66.27-95.92h16.01l71.15,102.99h-17.18Z"/>
      </g>
    </g>
  </g>
</svg>
