<?xml version="1.0" encoding="UTF-8"?>
<svg id="Capa_2" xmlns="http://www.w3.org/2000/svg" version="1.1" viewBox="0 0 882.9 130.9">
  <!-- Generator: Adobe Illustrator 29.8.2, SVG Export Plug-In . SVG Version: 2.1.1 Build 3)  -->
  <defs>
    <style>
      .st0 {
        fill: #fff;
      }
    </style>
  </defs>
  <g id="Capa_1-2">
    <g>
      <g>
        <path class="st0" d="M860.8,112.8v7.5h21.7v3.1h-21.7v7.5h-2.9v-18.1h2.9Z"/>
        <path class="st0" d="M879.5,79.9h3v14.3h-24.6v-13.9h2.9v10.8h7.6v-9.9h2.9v9.9h8.3v-11.2h0Z"/>
        <path class="st0" d="M870.2,62.4c-7.4,0-12.7-5.3-12.7-12.6s3.4-10.2,8.7-11.7v3.2c-3.6,1.3-5.7,4.5-5.7,8.5s4,9.5,9.7,9.5,9.7-4,9.7-9.5-2.3-7.3-6-8.6v-3.2c5.6,1.4,9.1,6,9.1,11.8s-5.3,12.6-12.7,12.6h0Z"/>
        <path class="st0" d="M857.9,0h24.6v3.1h-11.2v12.7h11.2v3.1h-24.6v-3.1h10.5V3.1h-10.5V0Z"/>
      </g>
      <g>
        <g>
          <path class="st0" d="M37.7,7.9h66.1c20.7,0,37.7,17,37.7,37.7v27.6c0,20.7-17,37.7-37.7,37.7H37.7c-20.7,0-37.7-17-37.7-37.7v-27.6C0,24.9,17,7.9,37.7,7.9ZM52.5,96.7h51.3c13,0,23.6-10.6,23.6-23.6v-27.6c0-13-10.6-23.6-23.6-23.6H37.7c-13,0-23.6,10.6-23.6,23.6v27.6c0,13,10.6,23.6,23.6,23.6h14.8Z"/>
          <path class="st0" d="M198.2,22c-8.2,0-15,6.7-15.1,14.9v.5c.1,8.2,6.8,14.8,14.9,14.9h67.9c16.1,0,29.3,13.2,29.3,29.3s-7.8,23.3-19.3,27.5c-3.2,1.2-6.6,1.8-10,1.8h-88.8v-14.1h88.8c8.2,0,15-6.7,15.1-14.9v-.4c-.1-8.2-6.8-14.8-14.9-14.9h-67.9c-16.1,0-29.3-13.2-29.3-29.3s7.8-23.3,19.3-27.5c3.2-1.2,6.6-1.8,10-1.8h88.8v14.1h-88.8,0Z"/>
          <path class="st0" d="M360.4,7.9h66.1c20.7,0,37.7,17,37.7,37.7v27.6c0,20.7-17,37.7-37.7,37.7h-66.1c-20.7,0-37.7-17-37.7-37.7v-27.6c0-20.7,17-37.7,37.7-37.7ZM375.1,96.7h51.3c13,0,23.6-10.6,23.6-23.6v-27.6c0-13-10.6-23.6-23.6-23.6h-66.1c-13,0-23.6,10.6-23.6,23.6v27.6c0,13,10.6,23.6,23.6,23.6h14.8Z"/>
          <path class="st0" d="M604.5,40h0c0-10-8-18-17.9-18h-95.1V7.9h95.1c17.6,0,32,14.4,32,32s-10.2,27.5-24.3,31.1l-.7.2c-.3,0-.7.2-1,.2l27.3,39.5h-18.2l-26.9-39h-69v39h-14.1v-53.1h95.1c9.7,0,17.8-8,17.9-17.7h0Z"/>
        </g>
        <path class="st0" d="M632.7.2v127.8h196.8V.2h-196.8ZM801.4,114.2h-92l9-14.1h73.2l-52.2-75.6-62,89.7h-26.4V11.2h14.1v95.9l66.3-95.9h16l71.2,103h-17.2Z"/>
      </g>
    </g>
  </g>
</svg>



